inDegrees=yes
name=ik_OwnShooting_orientations2.mot
DataType=double
version=3
OpenSimVersion=4.3-2021-08-27-4bc7ad9
endheader
time	pelvis_tilt	pelvis_list	pelvis_rotation	pelvis_tx	pelvis_ty	pelvis_tz	hip_flexion_r	hip_adduction_r	hip_rotation_r	knee_angle_r	knee_angle_r_beta	ankle_angle_r	subtalar_angle_r	mtp_angle_r	hip_flexion_l	hip_adduction_l	hip_rotation_l	knee_angle_l	knee_angle_l_beta	ankle_angle_l	subtalar_angle_l	mtp_angle_l	lumbar_extension	lumbar_bending	lumbar_rotation	arm_flex_r	arm_add_r	arm_rot_r	elbow_flex_r	pro_sup_r	wrist_flex_r	wrist_dev_r	arm_flex_l	arm_add_l	arm_rot_l	elbow_flex_l	pro_sup_l	wrist_flex_l	wrist_dev_l
0.01	0.02300406442936172	0.01204780328370783	57.88521197084599	0	0.9399999999999999	0	44.06872790441948	-10.098017989315	0	59.79363290650983	1.043595765947423	-5.030160635952267	0	0	44.06872790441948	-10.098017989315	0	59.79363290650983	1.043595765947423	-5.030160635952267	0	0	-0.03468018907077064	-0.003167651259400966	0.005406553058244676	-0.4377076015156102	-0.07836478105011344	-0.004027450780749096	0.9269756175070265	45.10518336317908	0	0	0	-12.14284571568417	0	76.01305117775762	45.10518336317908	0	0
0.02	-0.1509124320577559	-0.02602234907408887	57.87313369370423	0	0.9399999999999999	0	44.07017239173438	-10.09762300162134	0	59.79394176599187	1.043601156562311	-5.030011650348743	0	0	44.07017239173438	-10.09762300162134	0	59.79394176599187	1.043601156562311	-5.030011650348743	0	0	0.04061425303166062	0.001114540988642222	0.04437099207071686	-0.7541356466591685	1.481947990962357	0.5863253272713538	0.2717648709536989	45.10482885737923	0	0	0	-12.14547378569463	0	76.01148009872803	45.10482885737923	0	0
0.03	-0.2751530127822016	0.01611365873482267	57.88519011815713	0	0.9399999999999999	0	44.07485262934657	-10.09641123594494	0	59.79496517276034	1.043619018380008	-5.029561758691898	0	0	44.07485262934657	-10.09641123594494	0	59.79496517276034	1.043619018380008	-5.029561758691898	0	0	0.0322618595941961	-0.08983490362907419	0.04094619092891677	-5.492803520783062	6.028111947574739	7.318604374321512	0.03442015173349709	45.1037274922038	0	0	0	-12.15414979193867	0	76.00638970376838	45.1037274922038	0	0
0.04	-0.3349734167621014	-0.01502841141373676	57.9030885013526	0	0.9399999999999999	0	44.07924109472459	-10.09527062836715	0	59.795920995869	1.043635700640321	-5.02913794805021	0	0	44.07924109472459	-10.09527062836715	0	59.795920995869	1.043635700640321	-5.02913794805021	0	0	0.0508721993608358	-0.07106697694115205	0.04548839691015692	-9.068615867979403	6.884921137755699	13.88540857788129	0.01982853496512908	45.10269158461441	0	0	0	-12.16227179455967	0	76.00161665016161	45.10269158461441	0	0
0.05	-0.4013001143989509	-0.02359963966668525	57.86713235667223	0	0.9399999999999999	0	44.08716764153958	-10.09320787018588	0	59.79764233247766	1.043665743631677	-5.028372094047543	0	0	44.08716764153958	-10.09320787018588	0	59.79764233247766	1.043665743631677	-5.028372094047543	0	0	0.116562685277143	-0.1015023725142514	0.1205454486528137	-33.74442702094707	12.90279433578446	27.98682262076835	0.004971563539863363	45.1008177981133	0	0	0	-12.17692122828492	0	75.99299545064343	45.1008177981133	0	0
0.06	-0.4281630716864281	-0.03388515928028694	57.86328907175223	0	0.9399999999999999	0	44.12363629602442	-10.08354777937027	0	59.80559460377179	1.043804536948771	-5.024774958851006	0	0	44.12363629602442	-10.08354777937027	0	59.80559460377179	1.043804536948771	-5.024774958851006	0	0	0.141116498729646	-0.1246104569281188	0.112246610054351	-1.259275487678553	3.184378509082387	12.12748669988785	6.109544616179301	45.09207342208993	0	0	0	-12.24401975145051	0	75.9533308152988	45.09207342208993	0	0
0.07000000000000001	-0.4169360091829105	-0.04367151488030328	57.83472346836579	0	0.9399999999999999	0	44.13206961655846	-10.08144285185584	0	59.80737956011106	1.043835690313896	-5.024010907150587	0	0	44.13206961655846	-10.08144285185584	0	59.80737956011106	1.043835690313896	-5.024010907150587	0	0	0.1453658108501607	-0.1366988019841943	0.1202922810379911	-23.51311141823293	7.409214381619006	63.30723290047391	0.01104280399266492	45.09013331517583	0	0	0	-12.25963282705324	0	75.94415843447692	45.09013331517583	0	0
0.08	-0.4510998913782247	-0.02617062041377242	57.7956034518615	0	0.9399999999999999	0	44.14637958161966	-10.07801005772573	0	59.81047459585468	1.043889708878089	-5.022778106615524	0	0	44.14637958161966	-10.07801005772573	0	59.81047459585468	1.043889708878089	-5.022778106615524	0	0	0.1539332340012595	-0.2011151298330726	0.1529820784798463	-8.034769783737568	-8.23488334101039	58.31949456729242	0.01111689966608944	45.08694208367339	0	0	0	-12.28655974044225	0	75.92859442478364	45.08694208367339	0	0
0.09	-0.4962127299136997	-0.0363618127437902	57.80947007547938	0	0.9399999999999999	0	44.20849488250351	-10.06243922236318	0	59.82352500744184	1.044117481529025	-5.017172471471655	0	0	44.20849488250351	-10.06243922236318	0	59.82352500744184	1.044117481529025	-5.017172471471655	0	0	0.1825442846053273	-0.2510393870811921	0.1184946117107743	43.76840852804566	-33.06947049794972	79.56947978116347	149.9420319559638	45.07254722873602	0	0	0	-12.40065193967526	0	75.86103561070119	45.07254722873602	0	0
0.1	-0.5095453650619436	-0.03352614439532448	57.78937227573515	0	0.9399999999999999	0	44.58282006980324	-10.00718403625945	0	59.89811306026817	1.045419288633496	-5.000792699345357	0	0	44.58282006980324	-10.00718403625945	0	59.89811306026817	1.045419288633496	-5.000792699345357	0	0	0.1279837852619161	-0.2536290846203726	0.0755883189074716	-37.94682044543888	30.24948558217489	16.63687854430395	0.004944538662064973	45.01349910105862	0	0	0	-13.15904772917733	0	75.45390936642632	45.01349910105862	0	0
0.11	-0.4826287912288089	-0.0290026324181978	57.74331255733664	0	0.9399999999999999	0	44.5829366253442	-10.00717701354469	0	59.89813540862036	1.045419678685824	-5.000791688061412	0	0	44.5829366253442	-10.00717701354469	0	59.89813540862036	1.045419678685824	-5.000791688061412	0	0	0.1166906220270869	-0.2459712915267288	0.06568806120918072	-37.37364236665923	29.70634639957422	16.43476529301225	0.005005626634066654	45.01348866562822	0	0	0	-13.15931090133575	0	75.45378259812452	45.01348866562822	0	0
0.12	-0.4638696919991656	-0.003897594663364548	57.72273443442197	0	0.9399999999999999	0	44.58758042084537	-10.00697750340077	0	59.89926121745255	1.045439327756694	-5.000764967591328	0	0	44.58758042084537	-10.00697750340077	0	59.89926121745255	1.045439327756694	-5.000764967591328	0	0	0.05032321545748465	-0.2496084533986217	0.08287218132986909	-35.49058573139443	21.00813391708568	21.04125510847063	0.004943997868353327	45.01317248366148	0	0	0	-13.17167230145432	0	75.4487319155083	45.01317248366148	0	0
0.13	-0.4787434045174193	-0.009300387573658217	57.74138185042376	0	0.9399999999999999	0	44.63155588942151	-10.00502790347103	0	59.90978785298067	1.045623052205817	-5.000504235360917	0	0	44.63155588942151	-10.00502790347103	0	59.90978785298067	1.045623052205817	-5.000504235360917	0	0	0.07355689099155065	-0.2790844245993869	0.04723083518251565	-19.49951067124211	34.92234662531065	30.66246858275036	75.35893519349969	45.01009122280258	0	0	0	-13.28670238458739	0	75.40090333507277	45.01009122280258	0	0
0.14	-0.4633014364160193	-0.01840155000958488	57.71599202795017	0	0.9399999999999999	0	44.64972292586917	-10.00437190673813	0	59.91405313686274	1.045697495453092	-5.000423743223076	0	0	44.64972292586917	-10.00437190673813	0	59.91405313686274	1.045697495453092	-5.000423743223076	0	0	0.06350918440442076	-0.2363408985885304	0.08301110928353643	-44.89016255616212	22.64560353916162	58.63816591033738	0.006602867054266929	45.00899107538979	0	0	0	-13.33616033870639	0	75.38114451861527	45.00899107538979	0	0
0.15	-0.3467300712241421	0.05507937970270674	57.7433229564606	0	0.9399999999999999	0	44.65980482469683	-10.00404674535068	0	59.91651315610891	1.0457404308886	-5.000385123377699	0	0	44.65980482469683	-10.00404674535068	0	59.91651315610891	1.0457404308886	-5.000385123377699	0	0	-0.02861206954311358	-0.1881597681192555	0.04900039821219122	-47.77731694821374	22.2608893142373	40.58978557726312	0.004280402933782691	45.00843168310046	0	0	0	-13.36479532829723	0	75.37017925530084	45.00843168310046	0	0
0.16	-0.311502273231174	0.03719238935256038	57.74081743619649	0	0.9399999999999999	0	44.66261274039212	-10.00396157907366	0	59.91718472203915	1.045752151925227	-5.000375247095863	0	0	44.66261274039212	-10.00396157907366	0	59.91718472203915	1.045752151925227	-5.000375247095863	0	0	-0.02805157528926022	-0.1450605604871777	0.04612997526162568	-45.24223958119008	11.50768313253703	70.1157659117975	0.005407130562584427	45.00828257370887	0	0	0	-13.37284462506844	0	75.36712531332071	45.00828257370887	0	0
0.17	-0.2891019776804095	0.01750314278600799	57.72517621452019	0	0.9399999999999999	0	44.66628682371675	-10.00385268431382	0	59.91808106082797	1.045767795988305	-5.000362666087099	0	0	44.66628682371675	-10.00385268431382	0	59.91808106082797	1.045767795988305	-5.000362666087099	0	0	0.04779598167258261	-0.1069413518493916	0.07486819365193947	-51.22228094969212	16.25234690603427	63.12519250446505	0.004655354355031998	45.00809120802781	0	0	0	-13.38351322659245	0	75.36312931138117	45.00809120802781	0	0
0.18	-0.293751719498872	0.0363834999883248	57.6820844273239	0	0.9399999999999999	0	44.66999551264193	-10.00371579093389	0	59.91884356132927	1.045781104132601	-5.000346277999859	0	0	44.66999551264193	-10.00371579093389	0	59.91884356132927	1.045781104132601	-5.000346277999859	0	0	0.1091742004517616	-0.1417454510424594	0.1891074800249011	-51.41894227648331	16.61824479475807	60.93140080021988	0.004513937437175434	45.00785921711388	0	0	0	-13.39307340261396	0	75.35909566962401	45.00785921711388	0	0
0.19	-0.2981898195322986	0.07942900154471554	57.67496491736564	0	0.9399999999999999	0	44.70995518973825	-10.00248055474369	0	59.92843511068821	1.045948508249282	-5.000204961994587	0	0	44.70995518973825	-10.00248055474369	0	59.92843511068821	1.045948508249282	-5.000204961994587	0	0	0.1459108662579859	-0.1411487968576892	0.1878287517901832	-45.93725768578351	-14.33566484378502	-11.89243403958665	0.002520522081746557	45.00568716595717	0	0	0	-13.50518849520404	0	75.31563477688137	45.00568716595717	0	0
